<svg width="48" height="49" viewBox="0 0 48 49" fill="none" xmlns="http://www.w3.org/2000/svg">
<g id="Vector">
<mask id="path-1-outside-1_711_107" maskUnits="userSpaceOnUse" x="0" y="0" width="48" height="49" fill="black">
<rect fill="white" width="48" height="49"/>
<path d="M30.0074 44.9999C28.6842 44.9994 27.3809 44.6601 26.2101 44.0112C24.7913 44.6957 23.242 45.0283 21.6818 44.9832C20.1216 44.9381 18.592 44.5166 17.211 43.7511C17.0654 43.6748 16.9037 43.639 16.7412 43.6471C16.5787 43.6551 16.4209 43.7069 16.2828 43.7973C14.9059 44.6369 13.3259 45.0353 11.7369 44.9434C10.1479 44.8516 8.61895 44.2736 7.33765 43.2803C6.05635 42.2871 5.07847 40.9218 4.52399 39.352C3.96951 37.7822 3.86256 36.0763 4.21627 34.4434C4.55607 32.9103 5.29548 31.5074 6.35139 30.3923C7.4073 29.2771 8.73785 28.4941 10.1935 28.1311C11.4622 27.8094 12.7854 27.8094 14.0542 28.1311C14.1342 28.1571 14.2195 28.159 14.3005 28.1367C14.3816 28.1143 14.455 28.0685 14.5126 28.0045C15.3975 26.9435 16.4798 26.0848 17.6926 25.4815C18.9054 24.8782 20.2229 24.5431 21.5636 24.4969C22.9044 24.4507 24.2399 24.6944 25.4876 25.213C26.7352 25.7316 27.8686 26.514 28.8175 27.5118C28.9232 27.6264 29.1703 27.8882 30.0107 27.8882C31.2284 27.8868 32.4307 28.1743 33.5283 28.7293C34.6259 29.2843 35.5905 30.0926 36.3504 31.0939C36.4272 31.2112 36.5369 31.3003 36.6641 31.3488C37.4488 31.2561 38.2432 31.3306 39 31.5678C39.9232 31.8578 40.7597 32.3935 41.4286 33.1233C42.0975 33.853 42.5763 34.7519 42.8185 35.7333C43.0819 36.7575 43.082 37.8371 42.8187 38.8614C42.5553 39.8857 42.038 40.818 41.3197 41.5627C40.6015 42.3075 39.708 42.838 38.7309 43.0999C37.7537 43.3617 36.728 43.3456 35.7587 43.0532C35.3116 42.9215 35.2206 43.0019 35.18 43.0361C33.7299 44.3123 31.8978 45.0079 30.0074 44.9999ZM26.1288 40.5676C26.6889 40.5671 27.2404 40.7116 27.7349 40.9884C28.5832 41.4472 29.5394 41.6384 30.4884 41.5388C31.4375 41.4393 32.3391 41.0533 33.0846 40.4273C33.5751 40.0048 34.1607 39.7222 34.785 39.6066C35.4093 39.4909 36.0513 39.5462 36.6495 39.767C37.0684 39.8952 37.5124 39.9027 37.9351 39.7888C38.3577 39.6749 38.7436 39.4437 39.0524 39.1194C39.3613 38.7951 39.5818 38.3895 39.6909 37.945C39.8001 37.5004 39.7939 37.0332 39.673 36.592C39.5691 36.1845 39.3685 35.8114 39.0902 35.5077C38.8119 35.2041 38.4648 34.9797 38.0816 34.8557C37.7429 34.7498 37.3877 34.7155 37.0363 34.7548C36.4213 34.8119 35.8025 34.7029 35.2387 34.4379C34.6748 34.173 34.1846 33.7609 33.8145 33.2408C32.1223 30.5038 28.3461 32.1101 26.4995 29.9239C25.8666 29.2594 25.111 28.7385 24.2794 28.3934C23.4478 28.0483 22.5577 27.8863 21.6642 27.9174C20.7707 27.9485 19.8928 28.172 19.0846 28.5742C18.2765 28.9764 17.5553 29.5487 16.9655 30.2557C16.517 30.7942 15.9358 31.1917 15.286 31.4046C14.6363 31.6174 13.9434 31.6372 13.2837 31.4617C12.5092 31.2684 11.7026 31.2684 10.9282 31.4617C10.1366 31.6712 9.40761 32.0865 8.80807 32.6694C8.20854 33.2523 7.75764 33.9843 7.4967 34.7982C7.23576 35.6121 7.17314 36.482 7.31457 37.328C7.45599 38.174 7.79695 38.9691 8.30618 39.6404C9.05397 40.592 10.0966 41.2357 11.2507 41.4585C12.4048 41.6812 13.5966 41.4688 14.6166 40.8584C15.2402 40.4628 15.9508 40.2446 16.6787 40.2254C17.4066 40.2062 18.1267 40.3866 18.7683 40.7489C19.6742 41.259 20.6808 41.5392 21.7079 41.5671C22.735 41.595 23.754 41.3699 24.6837 40.9097C25.1351 40.6837 25.6289 40.5667 26.1288 40.5676ZM41.1831 29.604C41.0456 29.6039 40.9086 29.5861 40.7751 29.5509C40.5683 29.4947 40.3741 29.3962 40.2035 29.261C40.0329 29.1257 39.8893 28.9564 39.7809 28.7628C39.6726 28.5691 39.6015 28.3549 39.5718 28.1323C39.5421 27.9097 39.5544 27.6832 39.608 27.4656C39.7887 26.7168 39.8103 25.9353 39.6714 25.1768C39.5019 24.3157 39.1265 23.5144 38.5806 22.8486C38.0348 22.1829 37.3365 21.6747 36.5519 21.3722C35.611 20.9978 34.5807 20.9516 33.6129 21.2405C32.9891 21.4349 32.3247 21.432 31.7025 21.2322C31.0802 21.0324 30.5275 20.6444 30.1131 20.1166C29.4435 19.2723 28.59 18.6107 27.6251 18.1882C26.6603 17.7657 25.6127 17.5948 24.5716 17.69C23.5305 17.7853 22.5267 18.1439 21.6456 18.7352C20.7645 19.3266 20.0323 20.1333 19.5112 21.0866C19.1732 21.7338 18.6482 22.2511 18.0123 22.5636C17.3764 22.876 16.6625 22.9674 15.974 22.8246C15.4956 22.7217 15.0006 22.7435 14.5321 22.8879C14.0259 23.0404 13.5609 23.3161 13.1746 23.6926C12.7883 24.0691 12.4916 24.5359 12.3083 25.0553C12.2355 25.2666 12.1239 25.4607 11.9798 25.6266C11.8357 25.7925 11.662 25.9269 11.4686 26.0221C11.2751 26.1173 11.0658 26.1715 10.8524 26.1816C10.6391 26.1917 10.4259 26.1574 10.2252 26.0808C10.0244 26.0042 9.83992 25.8868 9.68229 25.7351C9.52466 25.5835 9.39695 25.4007 9.30646 25.1971C9.21597 24.9936 9.16446 24.7732 9.15488 24.5487C9.1453 24.3242 9.17784 24.0999 9.25063 23.8886C9.60811 22.8569 10.1935 21.9293 10.9586 21.1825C11.7237 20.4356 12.6465 19.8909 13.651 19.5932C14.6181 19.3035 15.6372 19.2624 16.6226 19.4734C17.4008 18.0275 18.5004 16.8016 19.8272 15.9006C21.154 14.9996 22.6685 14.4503 24.241 14.2998C25.8136 14.1493 27.3974 14.4021 28.8569 15.0365C30.3163 15.6708 31.608 16.6679 32.6213 17.9424C34.0012 17.5237 35.4618 17.4967 36.8547 17.8641C38.2477 18.2315 39.5236 18.9802 40.5527 20.0342C41.5819 21.0882 42.3277 22.41 42.7145 23.8654C43.1013 25.3208 43.1153 26.858 42.7551 28.321C42.6651 28.6878 42.4619 29.0128 42.1774 29.245C41.8929 29.4772 41.5432 29.6035 41.1831 29.604ZM6.17182 21.0506C5.86543 21.0497 5.56551 20.9577 5.30666 20.7852C5.04781 20.6127 4.84057 20.3667 4.70882 20.0756C4.26471 19.0938 4.02367 18.0241 4.00166 16.937C3.97964 15.85 4.17714 14.7704 4.5811 13.7696C4.98506 12.7689 5.58627 11.8697 6.345 11.1317C7.10372 10.3936 8.00267 9.83349 8.98242 9.48826C10.2768 9.01473 11.6741 8.94756 13.0041 9.29495C12.9878 9.29495 13.0463 9.24363 13.0886 9.15297C13.7815 7.71907 14.8117 6.49566 16.081 5.59921C17.3503 4.70275 18.8165 4.16308 20.34 4.03156C21.8635 3.90004 23.3937 4.18104 24.7848 4.84783C26.176 5.51462 27.3818 6.545 28.2876 7.84089C29.7579 7.29357 31.3545 7.24686 32.8515 7.70738C34.3484 8.1679 35.6697 9.11232 36.6283 10.4069C36.9323 10.8157 37.1062 10.8363 37.2786 10.8585C37.3289 10.8585 37.4931 10.891 37.5435 10.9013C38.2138 11.0546 38.846 11.3547 39.3988 11.7821C39.9517 12.2095 40.4128 12.7545 40.7524 13.3817C40.9658 13.776 41.0216 14.2433 40.9076 14.6809C40.7936 15.1185 40.5191 15.4905 40.1444 15.7151C39.7698 15.9397 39.3257 15.9984 38.9099 15.8784C38.4941 15.7584 38.1406 15.4695 37.9272 15.0753C37.8146 14.8657 37.6613 14.6835 37.4773 14.5405C37.2933 14.3975 37.0826 14.297 36.8592 14.2456C36.3048 14.1807 35.7698 13.993 35.2893 13.695C34.8088 13.3969 34.3937 12.9951 34.0713 12.5161C33.5378 11.7814 32.7957 11.2446 31.9528 10.9838C31.1098 10.7229 30.2097 10.7516 29.3832 11.0655C28.736 11.3324 28.0226 11.3642 27.3562 11.156C26.6898 10.9477 26.1085 10.5113 25.7046 9.91592C25.1365 9.07814 24.3727 8.40861 23.4871 7.97197C22.6014 7.53532 21.6238 7.34631 20.6485 7.42317C19.6732 7.50003 18.7332 7.84017 17.9192 8.41076C17.1052 8.98134 16.4448 9.76311 16.0016 10.6806C15.6771 11.4099 15.1245 11.9999 14.4364 12.352C13.7482 12.7042 12.966 12.7971 12.2205 12.6154C11.4936 12.4262 10.7299 12.4661 10.0244 12.73C9.47915 12.9193 8.97844 13.2287 8.55556 13.6374C8.13268 14.0461 7.79731 14.5449 7.57174 15.1006C7.34617 15.6562 7.23557 16.2561 7.24729 16.8602C7.25901 17.4643 7.39277 18.0589 7.6397 18.6044C7.75755 18.8648 7.81093 19.1523 7.79487 19.4402C7.77882 19.7281 7.69385 20.0071 7.54787 20.2512C7.40189 20.4953 7.19963 20.6966 6.9599 20.8363C6.72018 20.9761 6.45076 21.0498 6.1767 21.0506H6.17182Z"/>
</mask>
<path d="M30.0074 44.9999C28.6842 44.9994 27.3809 44.6601 26.2101 44.0112C24.7913 44.6957 23.242 45.0283 21.6818 44.9832C20.1216 44.9381 18.592 44.5166 17.211 43.7511C17.0654 43.6748 16.9037 43.639 16.7412 43.6471C16.5787 43.6551 16.4209 43.7069 16.2828 43.7973C14.9059 44.6369 13.3259 45.0353 11.7369 44.9434C10.1479 44.8516 8.61895 44.2736 7.33765 43.2803C6.05635 42.2871 5.07847 40.9218 4.52399 39.352C3.96951 37.7822 3.86256 36.0763 4.21627 34.4434C4.55607 32.9103 5.29548 31.5074 6.35139 30.3923C7.4073 29.2771 8.73785 28.4941 10.1935 28.1311C11.4622 27.8094 12.7854 27.8094 14.0542 28.1311C14.1342 28.1571 14.2195 28.159 14.3005 28.1367C14.3816 28.1143 14.455 28.0685 14.5126 28.0045C15.3975 26.9435 16.4798 26.0848 17.6926 25.4815C18.9054 24.8782 20.2229 24.5431 21.5636 24.4969C22.9044 24.4507 24.2399 24.6944 25.4876 25.213C26.7352 25.7316 27.8686 26.514 28.8175 27.5118C28.9232 27.6264 29.1703 27.8882 30.0107 27.8882C31.2284 27.8868 32.4307 28.1743 33.5283 28.7293C34.6259 29.2843 35.5905 30.0926 36.3504 31.0939C36.4272 31.2112 36.5369 31.3003 36.6641 31.3488C37.4488 31.2561 38.2432 31.3306 39 31.5678C39.9232 31.8578 40.7597 32.3935 41.4286 33.1233C42.0975 33.853 42.5763 34.7519 42.8185 35.7333C43.0819 36.7575 43.082 37.8371 42.8187 38.8614C42.5553 39.8857 42.038 40.818 41.3197 41.5627C40.6015 42.3075 39.708 42.838 38.7309 43.0999C37.7537 43.3617 36.728 43.3456 35.7587 43.0532C35.3116 42.9215 35.2206 43.0019 35.18 43.0361C33.7299 44.3123 31.8978 45.0079 30.0074 44.9999ZM26.1288 40.5676C26.6889 40.5671 27.2404 40.7116 27.7349 40.9884C28.5832 41.4472 29.5394 41.6384 30.4884 41.5388C31.4375 41.4393 32.3391 41.0533 33.0846 40.4273C33.5751 40.0048 34.1607 39.7222 34.785 39.6066C35.4093 39.4909 36.0513 39.5462 36.6495 39.767C37.0684 39.8952 37.5124 39.9027 37.9351 39.7888C38.3577 39.6749 38.7436 39.4437 39.0524 39.1194C39.3613 38.7951 39.5818 38.3895 39.6909 37.945C39.8001 37.5004 39.7939 37.0332 39.673 36.592C39.5691 36.1845 39.3685 35.8114 39.0902 35.5077C38.8119 35.2041 38.4648 34.9797 38.0816 34.8557C37.7429 34.7498 37.3877 34.7155 37.0363 34.7548C36.4213 34.8119 35.8025 34.7029 35.2387 34.4379C34.6748 34.173 34.1846 33.7609 33.8145 33.2408C32.1223 30.5038 28.3461 32.1101 26.4995 29.9239C25.8666 29.2594 25.111 28.7385 24.2794 28.3934C23.4478 28.0483 22.5577 27.8863 21.6642 27.9174C20.7707 27.9485 19.8928 28.172 19.0846 28.5742C18.2765 28.9764 17.5553 29.5487 16.9655 30.2557C16.517 30.7942 15.9358 31.1917 15.286 31.4046C14.6363 31.6174 13.9434 31.6372 13.2837 31.4617C12.5092 31.2684 11.7026 31.2684 10.9282 31.4617C10.1366 31.6712 9.40761 32.0865 8.80807 32.6694C8.20854 33.2523 7.75764 33.9843 7.4967 34.7982C7.23576 35.6121 7.17314 36.482 7.31457 37.328C7.45599 38.174 7.79695 38.9691 8.30618 39.6404C9.05397 40.592 10.0966 41.2357 11.2507 41.4585C12.4048 41.6812 13.5966 41.4688 14.6166 40.8584C15.2402 40.4628 15.9508 40.2446 16.6787 40.2254C17.4066 40.2062 18.1267 40.3866 18.7683 40.7489C19.6742 41.259 20.6808 41.5392 21.7079 41.5671C22.735 41.595 23.754 41.3699 24.6837 40.9097C25.1351 40.6837 25.6289 40.5667 26.1288 40.5676ZM41.1831 29.604C41.0456 29.6039 40.9086 29.5861 40.7751 29.5509C40.5683 29.4947 40.3741 29.3962 40.2035 29.261C40.0329 29.1257 39.8893 28.9564 39.7809 28.7628C39.6726 28.5691 39.6015 28.3549 39.5718 28.1323C39.5421 27.9097 39.5544 27.6832 39.608 27.4656C39.7887 26.7168 39.8103 25.9353 39.6714 25.1768C39.5019 24.3157 39.1265 23.5144 38.5806 22.8486C38.0348 22.1829 37.3365 21.6747 36.5519 21.3722C35.611 20.9978 34.5807 20.9516 33.6129 21.2405C32.9891 21.4349 32.3247 21.432 31.7025 21.2322C31.0802 21.0324 30.5275 20.6444 30.1131 20.1166C29.4435 19.2723 28.59 18.6107 27.6251 18.1882C26.6603 17.7657 25.6127 17.5948 24.5716 17.69C23.5305 17.7853 22.5267 18.1439 21.6456 18.7352C20.7645 19.3266 20.0323 20.1333 19.5112 21.0866C19.1732 21.7338 18.6482 22.2511 18.0123 22.5636C17.3764 22.876 16.6625 22.9674 15.974 22.8246C15.4956 22.7217 15.0006 22.7435 14.5321 22.8879C14.0259 23.0404 13.5609 23.3161 13.1746 23.6926C12.7883 24.0691 12.4916 24.5359 12.3083 25.0553C12.2355 25.2666 12.1239 25.4607 11.9798 25.6266C11.8357 25.7925 11.662 25.9269 11.4686 26.0221C11.2751 26.1173 11.0658 26.1715 10.8524 26.1816C10.6391 26.1917 10.4259 26.1574 10.2252 26.0808C10.0244 26.0042 9.83992 25.8868 9.68229 25.7351C9.52466 25.5835 9.39695 25.4007 9.30646 25.1971C9.21597 24.9936 9.16446 24.7732 9.15488 24.5487C9.1453 24.3242 9.17784 24.0999 9.25063 23.8886C9.60811 22.8569 10.1935 21.9293 10.9586 21.1825C11.7237 20.4356 12.6465 19.8909 13.651 19.5932C14.6181 19.3035 15.6372 19.2624 16.6226 19.4734C17.4008 18.0275 18.5004 16.8016 19.8272 15.9006C21.154 14.9996 22.6685 14.4503 24.241 14.2998C25.8136 14.1493 27.3974 14.4021 28.8569 15.0365C30.3163 15.6708 31.608 16.6679 32.6213 17.9424C34.0012 17.5237 35.4618 17.4967 36.8547 17.8641C38.2477 18.2315 39.5236 18.9802 40.5527 20.0342C41.5819 21.0882 42.3277 22.41 42.7145 23.8654C43.1013 25.3208 43.1153 26.858 42.7551 28.321C42.6651 28.6878 42.4619 29.0128 42.1774 29.245C41.8929 29.4772 41.5432 29.6035 41.1831 29.604ZM6.17182 21.0506C5.86543 21.0497 5.56551 20.9577 5.30666 20.7852C5.04781 20.6127 4.84057 20.3667 4.70882 20.0756C4.26471 19.0938 4.02367 18.0241 4.00166 16.937C3.97964 15.85 4.17714 14.7704 4.5811 13.7696C4.98506 12.7689 5.58627 11.8697 6.345 11.1317C7.10372 10.3936 8.00267 9.83349 8.98242 9.48826C10.2768 9.01473 11.6741 8.94756 13.0041 9.29495C12.9878 9.29495 13.0463 9.24363 13.0886 9.15297C13.7815 7.71907 14.8117 6.49566 16.081 5.59921C17.3503 4.70275 18.8165 4.16308 20.34 4.03156C21.8635 3.90004 23.3937 4.18104 24.7848 4.84783C26.176 5.51462 27.3818 6.545 28.2876 7.84089C29.7579 7.29357 31.3545 7.24686 32.8515 7.70738C34.3484 8.1679 35.6697 9.11232 36.6283 10.4069C36.9323 10.8157 37.1062 10.8363 37.2786 10.8585C37.3289 10.8585 37.4931 10.891 37.5435 10.9013C38.2138 11.0546 38.846 11.3547 39.3988 11.7821C39.9517 12.2095 40.4128 12.7545 40.7524 13.3817C40.9658 13.776 41.0216 14.2433 40.9076 14.6809C40.7936 15.1185 40.5191 15.4905 40.1444 15.7151C39.7698 15.9397 39.3257 15.9984 38.9099 15.8784C38.4941 15.7584 38.1406 15.4695 37.9272 15.0753C37.8146 14.8657 37.6613 14.6835 37.4773 14.5405C37.2933 14.3975 37.0826 14.297 36.8592 14.2456C36.3048 14.1807 35.7698 13.993 35.2893 13.695C34.8088 13.3969 34.3937 12.9951 34.0713 12.5161C33.5378 11.7814 32.7957 11.2446 31.9528 10.9838C31.1098 10.7229 30.2097 10.7516 29.3832 11.0655C28.736 11.3324 28.0226 11.3642 27.3562 11.156C26.6898 10.9477 26.1085 10.5113 25.7046 9.91592C25.1365 9.07814 24.3727 8.40861 23.4871 7.97197C22.6014 7.53532 21.6238 7.34631 20.6485 7.42317C19.6732 7.50003 18.7332 7.84017 17.9192 8.41076C17.1052 8.98134 16.4448 9.76311 16.0016 10.6806C15.6771 11.4099 15.1245 11.9999 14.4364 12.352C13.7482 12.7042 12.966 12.7971 12.2205 12.6154C11.4936 12.4262 10.7299 12.4661 10.0244 12.73C9.47915 12.9193 8.97844 13.2287 8.55556 13.6374C8.13268 14.0461 7.79731 14.5449 7.57174 15.1006C7.34617 15.6562 7.23557 16.2561 7.24729 16.8602C7.25901 17.4643 7.39277 18.0589 7.6397 18.6044C7.75755 18.8648 7.81093 19.1523 7.79487 19.4402C7.77882 19.7281 7.69385 20.0071 7.54787 20.2512C7.40189 20.4953 7.19963 20.6966 6.9599 20.8363C6.72018 20.9761 6.45076 21.0498 6.1767 21.0506H6.17182Z" fill="black"/>
<path d="M30.0074 44.9999C28.6842 44.9994 27.3809 44.6601 26.2101 44.0112C24.7913 44.6957 23.242 45.0283 21.6818 44.9832C20.1216 44.9381 18.592 44.5166 17.211 43.7511C17.0654 43.6748 16.9037 43.639 16.7412 43.6471C16.5787 43.6551 16.4209 43.7069 16.2828 43.7973C14.9059 44.6369 13.3259 45.0353 11.7369 44.9434C10.1479 44.8516 8.61895 44.2736 7.33765 43.2803C6.05635 42.2871 5.07847 40.9218 4.52399 39.352C3.96951 37.7822 3.86256 36.0763 4.21627 34.4434C4.55607 32.9103 5.29548 31.5074 6.35139 30.3923C7.4073 29.2771 8.73785 28.4941 10.1935 28.1311C11.4622 27.8094 12.7854 27.8094 14.0542 28.1311C14.1342 28.1571 14.2195 28.159 14.3005 28.1367C14.3816 28.1143 14.455 28.0685 14.5126 28.0045C15.3975 26.9435 16.4798 26.0848 17.6926 25.4815C18.9054 24.8782 20.2229 24.5431 21.5636 24.4969C22.9044 24.4507 24.2399 24.6944 25.4876 25.213C26.7352 25.7316 27.8686 26.514 28.8175 27.5118C28.9232 27.6264 29.1703 27.8882 30.0107 27.8882C31.2284 27.8868 32.4307 28.1743 33.5283 28.7293C34.6259 29.2843 35.5905 30.0926 36.3504 31.0939C36.4272 31.2112 36.5369 31.3003 36.6641 31.3488C37.4488 31.2561 38.2432 31.3306 39 31.5678C39.9232 31.8578 40.7597 32.3935 41.4286 33.1233C42.0975 33.853 42.5763 34.7519 42.8185 35.7333C43.0819 36.7575 43.082 37.8371 42.8187 38.8614C42.5553 39.8857 42.038 40.818 41.3197 41.5627C40.6015 42.3075 39.708 42.838 38.7309 43.0999C37.7537 43.3617 36.728 43.3456 35.7587 43.0532C35.3116 42.9215 35.2206 43.0019 35.18 43.0361C33.7299 44.3123 31.8978 45.0079 30.0074 44.9999ZM26.1288 40.5676C26.6889 40.5671 27.2404 40.7116 27.7349 40.9884C28.5832 41.4472 29.5394 41.6384 30.4884 41.5388C31.4375 41.4393 32.3391 41.0533 33.0846 40.4273C33.5751 40.0048 34.1607 39.7222 34.785 39.6066C35.4093 39.4909 36.0513 39.5462 36.6495 39.767C37.0684 39.8952 37.5124 39.9027 37.9351 39.7888C38.3577 39.6749 38.7436 39.4437 39.0524 39.1194C39.3613 38.7951 39.5818 38.3895 39.6909 37.945C39.8001 37.5004 39.7939 37.0332 39.673 36.592C39.5691 36.1845 39.3685 35.8114 39.0902 35.5077C38.8119 35.2041 38.4648 34.9797 38.0816 34.8557C37.7429 34.7498 37.3877 34.7155 37.0363 34.7548C36.4213 34.8119 35.8025 34.7029 35.2387 34.4379C34.6748 34.173 34.1846 33.7609 33.8145 33.2408C32.1223 30.5038 28.3461 32.1101 26.4995 29.9239C25.8666 29.2594 25.111 28.7385 24.2794 28.3934C23.4478 28.0483 22.5577 27.8863 21.6642 27.9174C20.7707 27.9485 19.8928 28.172 19.0846 28.5742C18.2765 28.9764 17.5553 29.5487 16.9655 30.2557C16.517 30.7942 15.9358 31.1917 15.286 31.4046C14.6363 31.6174 13.9434 31.6372 13.2837 31.4617C12.5092 31.2684 11.7026 31.2684 10.9282 31.4617C10.1366 31.6712 9.40761 32.0865 8.80807 32.6694C8.20854 33.2523 7.75764 33.9843 7.4967 34.7982C7.23576 35.6121 7.17314 36.482 7.31457 37.328C7.45599 38.174 7.79695 38.9691 8.30618 39.6404C9.05397 40.592 10.0966 41.2357 11.2507 41.4585C12.4048 41.6812 13.5966 41.4688 14.6166 40.8584C15.2402 40.4628 15.9508 40.2446 16.6787 40.2254C17.4066 40.2062 18.1267 40.3866 18.7683 40.7489C19.6742 41.259 20.6808 41.5392 21.7079 41.5671C22.735 41.595 23.754 41.3699 24.6837 40.9097C25.1351 40.6837 25.6289 40.5667 26.1288 40.5676ZM41.1831 29.604C41.0456 29.6039 40.9086 29.5861 40.7751 29.5509C40.5683 29.4947 40.3741 29.3962 40.2035 29.261C40.0329 29.1257 39.8893 28.9564 39.7809 28.7628C39.6726 28.5691 39.6015 28.3549 39.5718 28.1323C39.5421 27.9097 39.5544 27.6832 39.608 27.4656C39.7887 26.7168 39.8103 25.9353 39.6714 25.1768C39.5019 24.3157 39.1265 23.5144 38.5806 22.8486C38.0348 22.1829 37.3365 21.6747 36.5519 21.3722C35.611 20.9978 34.5807 20.9516 33.6129 21.2405C32.9891 21.4349 32.3247 21.432 31.7025 21.2322C31.0802 21.0324 30.5275 20.6444 30.1131 20.1166C29.4435 19.2723 28.59 18.6107 27.6251 18.1882C26.6603 17.7657 25.6127 17.5948 24.5716 17.69C23.5305 17.7853 22.5267 18.1439 21.6456 18.7352C20.7645 19.3266 20.0323 20.1333 19.5112 21.0866C19.1732 21.7338 18.6482 22.2511 18.0123 22.5636C17.3764 22.876 16.6625 22.9674 15.974 22.8246C15.4956 22.7217 15.0006 22.7435 14.5321 22.8879C14.0259 23.0404 13.5609 23.3161 13.1746 23.6926C12.7883 24.0691 12.4916 24.5359 12.3083 25.0553C12.2355 25.2666 12.1239 25.4607 11.9798 25.6266C11.8357 25.7925 11.662 25.9269 11.4686 26.0221C11.2751 26.1173 11.0658 26.1715 10.8524 26.1816C10.6391 26.1917 10.4259 26.1574 10.2252 26.0808C10.0244 26.0042 9.83992 25.8868 9.68229 25.7351C9.52466 25.5835 9.39695 25.4007 9.30646 25.1971C9.21597 24.9936 9.16446 24.7732 9.15488 24.5487C9.1453 24.3242 9.17784 24.0999 9.25063 23.8886C9.60811 22.8569 10.1935 21.9293 10.9586 21.1825C11.7237 20.4356 12.6465 19.8909 13.651 19.5932C14.6181 19.3035 15.6372 19.2624 16.6226 19.4734C17.4008 18.0275 18.5004 16.8016 19.8272 15.9006C21.154 14.9996 22.6685 14.4503 24.241 14.2998C25.8136 14.1493 27.3974 14.4021 28.8569 15.0365C30.3163 15.6708 31.608 16.6679 32.6213 17.9424C34.0012 17.5237 35.4618 17.4967 36.8547 17.8641C38.2477 18.2315 39.5236 18.9802 40.5527 20.0342C41.5819 21.0882 42.3277 22.41 42.7145 23.8654C43.1013 25.3208 43.1153 26.858 42.7551 28.321C42.6651 28.6878 42.4619 29.0128 42.1774 29.245C41.8929 29.4772 41.5432 29.6035 41.1831 29.604ZM6.17182 21.0506C5.86543 21.0497 5.56551 20.9577 5.30666 20.7852C5.04781 20.6127 4.84057 20.3667 4.70882 20.0756C4.26471 19.0938 4.02367 18.0241 4.00166 16.937C3.97964 15.85 4.17714 14.7704 4.5811 13.7696C4.98506 12.7689 5.58627 11.8697 6.345 11.1317C7.10372 10.3936 8.00267 9.83349 8.98242 9.48826C10.2768 9.01473 11.6741 8.94756 13.0041 9.29495C12.9878 9.29495 13.0463 9.24363 13.0886 9.15297C13.7815 7.71907 14.8117 6.49566 16.081 5.59921C17.3503 4.70275 18.8165 4.16308 20.34 4.03156C21.8635 3.90004 23.3937 4.18104 24.7848 4.84783C26.176 5.51462 27.3818 6.545 28.2876 7.84089C29.7579 7.29357 31.3545 7.24686 32.8515 7.70738C34.3484 8.1679 35.6697 9.11232 36.6283 10.4069C36.9323 10.8157 37.1062 10.8363 37.2786 10.8585C37.3289 10.8585 37.4931 10.891 37.5435 10.9013C38.2138 11.0546 38.846 11.3547 39.3988 11.7821C39.9517 12.2095 40.4128 12.7545 40.7524 13.3817C40.9658 13.776 41.0216 14.2433 40.9076 14.6809C40.7936 15.1185 40.5191 15.4905 40.1444 15.7151C39.7698 15.9397 39.3257 15.9984 38.9099 15.8784C38.4941 15.7584 38.1406 15.4695 37.9272 15.0753C37.8146 14.8657 37.6613 14.6835 37.4773 14.5405C37.2933 14.3975 37.0826 14.297 36.8592 14.2456C36.3048 14.1807 35.7698 13.993 35.2893 13.695C34.8088 13.3969 34.3937 12.9951 34.0713 12.5161C33.5378 11.7814 32.7957 11.2446 31.9528 10.9838C31.1098 10.7229 30.2097 10.7516 29.3832 11.0655C28.736 11.3324 28.0226 11.3642 27.3562 11.156C26.6898 10.9477 26.1085 10.5113 25.7046 9.91592C25.1365 9.07814 24.3727 8.40861 23.4871 7.97197C22.6014 7.53532 21.6238 7.34631 20.6485 7.42317C19.6732 7.50003 18.7332 7.84017 17.9192 8.41076C17.1052 8.98134 16.4448 9.76311 16.0016 10.6806C15.6771 11.4099 15.1245 11.9999 14.4364 12.352C13.7482 12.7042 12.966 12.7971 12.2205 12.6154C11.4936 12.4262 10.7299 12.4661 10.0244 12.73C9.47915 12.9193 8.97844 13.2287 8.55556 13.6374C8.13268 14.0461 7.79731 14.5449 7.57174 15.1006C7.34617 15.6562 7.23557 16.2561 7.24729 16.8602C7.25901 17.4643 7.39277 18.0589 7.6397 18.6044C7.75755 18.8648 7.81093 19.1523 7.79487 19.4402C7.77882 19.7281 7.69385 20.0071 7.54787 20.2512C7.40189 20.4953 7.19963 20.6966 6.9599 20.8363C6.72018 20.9761 6.45076 21.0498 6.1767 21.0506H6.17182Z" stroke="#D9D9D9" stroke-width="8" mask="url(#path-1-outside-1_711_107)"/>
</g>
</svg>
